<svg version="1" xmlns="http://www.w3.org/2000/svg" width="346.667" height="346.667" viewBox="0 0 260.000000 260.000000"><path d="M111 9.5c-24.8 3.9-48.3 15.9-66.5 34-10.6 10.5-16.7 18.8-23 31.1-17.8 34.8-17.8 76 0 110.8 11.7 23 30.8 41.9 54.5 53.9 58.9 29.7 132.3 5.4 162.5-53.9 7.6-14.8 11.7-29.5 13.1-46.7l.7-8.7H111v33h51.5c28.3 0 51.5.2 51.5.5 0 1.6-6.4 12.8-10.3 18.2-31 42.1-90.5 49.5-131.9 16.5-13.1-10.4-25.3-29.4-29.9-46.7-2.8-10.4-3.1-30.6-.6-40.8 5.4-22 19.3-41.9 37.5-54.1 8.4-5.5 15.5-8.8 27.1-12.3 7.6-2.3 10.3-2.6 23.6-2.7 11.2 0 16.7.5 21.5 1.7 14.3 3.9 27.7 10.5 37.4 18.6 2.6 2.3 5.1 4.1 5.5 4.1.3 0 5.5-4.9 11.5-10.9 12.6-12.7 12.6-10.9.1-20.6C177.7 13 144.7 4.3 111 9.5z"/><path d="M112.6 45.2c-4 3.5-4.3 7.8-1.1 11.6 5.3 6.3 15.5 3 15.5-5.1 0-7.4-8.9-11.4-14.4-6.5zM147.3 52.2c-.6.7-1.6 4.7-2.3 9l-1.3 7.6-4.6.9c-4.1.7-4.6 1.1-4.9 3.6-.5 3.8 1.4 5.7 5.4 5.7h3.4v18.2c0 20.6.7 23.4 6.9 27.5 5.2 3.5 15.5 2.9 21.7-1.2l2.4-1.5-2.7-4.1c-2.1-3.2-3.1-3.9-4.7-3.4-5.1 1.6-6.4 1.6-7.9 0-1.5-1.4-1.7-4.1-1.7-18.6V79h15V69h-15V51h-4.4c-2.4 0-4.8.6-5.3 1.2zM111.7 68.7c-.4.3-.7 13.4-.7 29V126h14V68h-6.3c-3.5 0-6.7.3-7 .7z"/></svg>